<?xml version="1.0" encoding="UTF-8"?><svg id="LOGO" xmlns="http://www.w3.org/2000/svg" viewBox="0 0 1366 577.89"><defs><style>.cls-1{fill:#fff;}.cls-2{fill:#f0f;}</style></defs><path class="cls-1" d="m540.31,276.35c-21.8,0-40.9-2.64-57.29-7.92-16.4-5.28-31.12-11.74-44.15-19.38l15.17-50.21c13.48,7.87,27.02,14.33,40.61,19.38,13.59,5.06,29.15,7.58,46.68,7.58,13.25,0,22.8-2.47,28.65-7.41,5.84-4.94,8.76-11.57,8.76-19.89,0-10.33-3.71-17.41-11.12-21.23-7.42-3.81-20.22-7.75-38.42-11.79-30.79-6.96-52.41-16.51-64.88-28.65-12.47-12.13-18.7-29.66-18.7-52.57s8.09-43.53,24.26-59.82C486.05,8.15,510.88,0,544.35,0c16.18,0,32.52,2.86,49.04,8.6,16.51,5.73,29.6,11.4,39.26,17.02l-11.79,47.86c-13.48-6.74-26.24-12.13-38.25-16.18-12.02-4.04-24.66-6.06-37.91-6.06-11.01,0-19.1,2.13-24.27,6.4-5.17,4.27-7.75,10.56-7.75,18.87s3.14,14.95,9.44,19.88c6.29,4.94,19.77,9.56,40.44,13.82,30.78,6.52,52.41,16.06,64.88,28.65,12.47,12.59,18.7,31.12,18.7,55.61,0,26.06-9.33,46.22-27.97,60.49-18.65,14.27-44.6,21.4-77.85,21.4Z"/><path class="cls-1" d="m830.82,272.98l-13.82-60.66h-76.5l-15.17,60.66h-60.66L738.14,3.37h82.57l73.47,269.61h-63.36Zm-25.28-111.22l-24.6-109.87-27.64,109.87h52.24Z"/><path class="cls-1" d="m1015.84,276.35c-32.81,0-57.97-8.03-75.49-24.1-17.52-16.06-26.29-39.15-26.29-69.26v-88.3c0-30.55,8.71-53.98,26.12-70.27,17.41-16.29,42.52-24.43,75.32-24.43s57.4,7.31,73.81,21.91c16.4,14.61,25.39,35.5,26.96,62.69l-67.4,3.37c-1.13-14.15-4.1-23.93-8.93-29.32-4.84-5.39-12.75-8.09-23.76-8.09-13.03,0-22.07,3.65-27.13,10.95-5.06,7.31-7.58,20.62-7.58,39.94v74.82c0,18.87,2.41,31.85,7.24,38.93,4.83,7.08,13.65,10.62,26.46,10.62s21.68-3.42,26.63-10.28c4.94-6.85,7.3-19.15,7.08-36.9h-33.7v-50.55h101.11v54.93c0,30.11-8.65,53.2-25.95,69.26-17.31,16.07-42.13,24.1-74.48,24.1Z"/><path class="cls-1" d="m1302.64,272.98l-13.82-60.66h-76.5l-15.17,60.66h-60.66L1209.96,3.37h82.57l73.47,269.61h-63.36Zm-25.28-111.22l-24.6-109.87-27.64,109.87h52.24Z"/><path class="cls-1" d="m459.09,574.53v-269.62h67.4v219.06h117.96v50.56h-185.36Z"/><path class="cls-1" d="m830.82,574.53l-13.82-60.67h-76.5l-15.17,60.67h-60.66l73.47-269.62h82.57l73.47,269.62h-63.36Zm-25.28-111.22l-24.6-109.87-27.64,109.87h52.24Z"/><path class="cls-1" d="m914.06,574.53v-269.62h105.82c30.33,0,52.75,5.18,67.24,15.5,14.49,10.34,21.74,26.29,21.74,47.86v11.46c0,14.83-3.15,25.78-9.44,32.86-6.29,7.08-16.51,11.85-30.67,14.33v9.77c15.28,1.58,27.01,6.8,35.22,15.67,8.2,8.88,12.3,20.05,12.3,33.53v17.53c0,24.05-7.92,41.91-23.76,53.59-15.84,11.68-40.39,17.53-73.64,17.53h-104.81Zm67.4-161.77h31.68c10.56,0,18.03-1.69,22.41-5.06,4.38-3.37,6.57-9.21,6.57-17.53v-16.17c0-8.09-2.19-13.76-6.57-17.02-4.38-3.25-11.85-4.88-22.41-4.88h-31.68v60.66Zm0,114.58h30.33c13.48,0,23.03-2.02,28.65-6.07,5.61-4.04,8.42-11.12,8.42-21.23v-17.53c0-9.66-2.81-16.51-8.42-20.56-5.62-4.05-15.17-6.06-28.65-6.06h-30.33v71.44Z"/><path class="cls-1" d="m1248.04,577.89c-21.8,0-40.9-2.64-57.29-7.92-16.4-5.27-31.12-11.74-44.15-19.37l15.17-50.22c13.48,7.87,27.02,14.33,40.61,19.38,13.59,5.06,29.15,7.58,46.68,7.58,13.25,0,22.8-2.47,28.65-7.41,5.84-4.94,8.76-11.57,8.76-19.88,0-10.33-3.71-17.41-11.12-21.23-7.42-3.82-20.22-7.76-38.42-11.8-30.79-6.96-52.41-16.51-64.88-28.64-12.47-12.14-18.7-29.66-18.7-52.58s8.09-43.52,24.26-59.82c16.18-16.28,41-24.43,74.48-24.43,16.18,0,32.52,2.87,49.04,8.59,16.51,5.73,29.6,11.41,39.26,17.02l-11.79,47.86c-13.48-6.74-26.24-12.14-38.25-16.18-12.02-4.05-24.66-6.07-37.91-6.07-11.01,0-19.1,2.14-24.27,6.4-5.17,4.28-7.75,10.57-7.75,18.88s3.14,14.94,9.44,19.88c6.29,4.94,19.77,9.55,40.44,13.82,30.78,6.52,52.41,16.07,64.88,28.65,12.47,12.58,18.7,31.12,18.7,55.6,0,26.07-9.33,46.23-27.97,60.49-18.65,14.28-44.6,21.4-77.85,21.4Z"/><path class="cls-2" d="m178.01,463.64l-64.47-53.09c-1.66-1.36-4.1-1.13-5.47.53-.6.72-.91,1.64-.88,2.58l.69,26.04c.21,8.16,5.8,15.19,13.71,17.23l52.91,13.48c2.06.61,4.22-.57,4.82-2.63.45-1.51-.07-3.15-1.3-4.13Z"/><path class="cls-2" d="m316.24,437.17c-16.08,33.63-43.84,36.64-86.68,43.1-15.21,2.29-27.27,2.96-39.3-2.91,5.67,5.52,17.47,11.65,21.84,13.1,35.24,12.77,44.5,15.01,73.69-4.3,16.92-11.19,29.97-26.81,40.08-44.53,2.18-3.81,2.92-8.45,4.32-12.7-1.22-.55-2.44-1.1-3.66-1.65-3.44,3.29-7.12,6.36-10.27,9.89Z"/><path class="cls-2" d="m129.84,400.93s7.28,10.92,18.92,19.65l-6.7-16.76c-7.45-21.71-12.65-44.19-19.43-66.15-1.32-4.28-5.66-7.56-8.15-11.58-2.25-3.63-5.58-7.69-5.45-11.45.25-7.31,1.77-14.83,4.21-21.76,8.86-25.2,21.13-48.15,44.85-62.87,1.9-1.18,3.46-2.94,5.05-4.55.61-.62.85-1.6,1.28-2.43-10.18-3.49-27.54,4.63-37.25,16.94-15.64,19.82-24.34,42.68-29.77,66.99-1.27,5.69-3.31,11.66-2.64,17.21.88,7.31,10.12,33.36,13.26,39.63,9.01,18.02,15.14,24.32,21.84,37.12Z"/><path class="cls-2" d="m222.62,469.44c.04.19.08.39.14.58.18-.01.37-.03.55-.05.91.56,2.04.76,3.15.43l10.34-2.63c5.64-1.22,11.6-2.78,16.96-4.32l25.61-6.52c7.9-2.04,13.5-9.07,13.71-17.23l.69-26.04c.03-.94-.29-1.85-.88-2.58-1.01-1.22-2.6-1.66-4.04-1.27.01-.04.03-.09.04-.13-.09.07-.19.14-.28.21-.42.15-.83.36-1.19.66l-64.47,53.09c-1.23.98-1.75,2.62-1.3,4.13.19.65.54,1.21.99,1.66Z"/><path class="cls-2" d="m0,3.7v570.82h404.55V3.7H0Zm226.16,49.03c8.04,0,17.17-2.46,23.89.52,13.75,6.1,26.28,14.99,39.07,23.1,1.55.98,1.65,4.23,2.42,6.43-2.05.49-4.51,1.98-6.07,1.33-19.09-8-38.05-16.28-56.99-24.63-1.24-.55-1.95-2.32-2.9-3.52.19-1.08.39-2.15.58-3.23Zm-35.03,6.75c38.46,5.74,73.57,20.03,104.58,43.67,5.59,4.26,10.56,9.59,14.87,15.16,2.44,3.16,2.93,7.81,4.3,11.79l-2.62,2.28c-3.75-1.9-8.04-3.16-11.16-5.81-37.89-32.22-82.66-48.63-130.79-57.57-3.63-.67-7.08-2.28-12.15-3.97,11.34-8.02,22.42-7.12,32.99-5.54Zm-39.64,16.23c50.83.95,96,17.65,134.69,50.51,16.78,14.25,33.63,28.95,47.53,45.85,9.95,12.1,15.21,28.12,22.15,42.58,1.28,2.67.59,6.28,1,12.16-3.85-3.3-6.28-4.71-7.78-6.79-4.18-5.77-8.18-11.69-11.9-17.77-43.18-70.47-106.53-106.49-188.62-110.71-8.73-.45-17.44-1.36-26.15-2.06,0-1.35-.02-2.7-.03-4.05,7.8-8.61,18.3-9.94,29.11-9.74Zm196.71,315.19c-2.69,32.11-9.57,61.58-29.99,86.64-31.47,38.61-55.53,40.3-104.2,32.34-14.83-2.43-28.46-13.07-42.04-21.6-.45-.24-.9-.49-1.37-.73-12.33-6.59-22.56-6.87-40.76-13.83-7.9-3.02-9.45-2.11-13.1-3.64,1.26,2.57,2.3,4.66,3.26,6.55,8.75,11.68,17.68,17.74,24.4,21.11,4.7,2.36,14.54,5.46,34.21,11.65,6.45,2.03,12.31,5.88,18.92,7.28,0,0,6.79,1.43,10.92,5.82.49.52,1.89,2.01,1.46,2.91-.17.36-.6.56-1.46.73-1.69.34-2.54.5-4.37,0-4.33-1.19-17.42.29-34.21-4.37-12.12-3.36-21.42-6.75-36.39-16.01-9.09-5.62-16.26-10.84-21.11-14.56l.14-.34c-8.92-7.11-16.56-17.79-19.37-28.02-2.99-10.91-5.37-22.17-9.99-32.38-3.69-8.17-10.35-15-17.19-21.66-6.14,17.44,11.16,29.37,9.14,46.64-11.34-3.79-16.74-12.28-20.71-21.8-11.37-27.2-14.06-55.41-12.08-84.81,2.12-31.45,11.7-60.32,25.22-88.18,3.47-7.15,8.83-13.52,14.08-19.61,1.61-1.87,6.56-3.01,8.43-1.89,1.83,1.1,2.92,5.89,2.14,8.37-1.92,6.13-4.74,12.07-7.84,17.74-15.46,28.32-21.27,58.91-22.21,90.77-.57,19.11,5.7,36.03,17.62,50.35,5.33,6.41,13.47,20.52,14.35,22.68-.25-2.82-.85-16.99.81-30.31.73-5.82.38-14.87-1.46-19.65-10.02-17.68-11.38-23.64-14.98-44.67-6.71-39.17,15.22-72.28,25.46-90.06,16.19-28.09,37.64-41.69,73.4-35.87,54.1,8.8,87.93,37.74,102.1,90.61,7.18,26.8,8.74,53.08-2.59,79.02-10.6,24.28-31.31,33.42-55.79,23.52-28.8-11.66-43.64-34.57-48.03-64.63-1.08-7.37-.77-14.94-1.11-22.42,1.53-.41,3.07-.83,4.6-1.24,2.78,6.06,5.37,12.22,8.37,18.16,6.65,13.17,13.26,26.38,20.45,39.26,1.96,3.51,5.75,6.14,9.01,8.77,20.44,16.5,41.14,11.72,52-12.43,9.46-21.04,6.37-42.43.6-63.82-6.91-25.61-22.21-45.33-43.16-60.67-34.01-24.89-69.41-8.91-83.27,26.48-9.02,23.04-7.28,46.71-1.57,69.94,5.33,21.68,12.12,43.04,18.98,64.31,4.64,14.4,20.12,32.74,30.15,44.14,5.31,4.47,8.67,10.2,16.01,8.73,7.28-1.46,9.46-3.64,11.65-5.1,3.88-2.59,5.1-3.64,13.1-10.19,1.59-1.3,2.18-3.64,7.28-5.82-20.05,6.44-34.35-4.94-48.77-19.76-35.59-36.55-46.55-80.56-35.3-129.87,3.36-14.75,12.12-27.18,23.68-37.26,8.95-7.8,21.73-10.14,30.63-4.37,3.43,2.23,4.9,7.48,7.27,11.36-3.74.83-7.6,2.73-11.18,2.29-12.97-1.6-19.72,1.47-27.24,13.45-15.09,24.02-14.63,49.87-8.64,76.17,4.99,21.89,13.99,41.76,31.43,56.92,17.8,15.47,29.5,23.17,50.5,12.88,11.32-5.55,26.32-15.79,37.04-22.28,5.19-3.14,10.56-9.27,11.89-14.96,9.16-39.45-1.04-76.22-16.73-112.29-18.32-42.12-50.46-65.7-95.22-72.43-38.26-5.75-72,3.68-99.76,31.79-15.63,15.83-29.24,32.92-38.35,53.43-2.49,5.6-6.28,10.63-9.48,15.92-1.09-.51-2.19-1.01-3.28-1.52-3.58-9.67-1.34-19.41,2.94-27.9,30.81-61.13,90.18-111.44,175.46-80.28,26.49,9.68,48.01,23.61,64.03,42.9,14.72,17.74,20.54,34.74,25.8,50.32,6.65,19.7,15.22,54.14,10.76,99.56-.1.57-.24,1.13-.38,1.7-1.34,8.81-3.74,20.38-2.12,40.41.25,3.07-.14,6.22-1.03,9.46,12.42-16.77,20.51-38.36,21.8-60.58,3.42-58.95-14.94-112.15-53.31-157.23-18.82-22.12-44.13-34.84-73.24-38.94-24.71-3.48-49.38-8.43-74.49-3.99-24.18,4.28-44.36,15.68-60.68,34.13-5.16,5.83-11.2,10.89-18.1,15.36-2.91-13.03,3.06-22.36,10.95-30.4,25.64-26.09,58.02-38.08,93.48-35.75,29.19,1.92,58.5,8.16,86.79,15.99,31.79,8.79,52.28,33.17,67.66,61.06,27.48,49.83,42.16,102.47,37.29,160.48Zm-102.49-72.23c-5.74-13.62-13.41-26.43-20.04-39.69-2.49-4.98-10.2-10.44-2.76-15.79,6.7-4.82,11.47,2.6,14.91,6.96,18.52,23.46,29.09,49.82,24.76,80.21-3.09,21.7-22.55,29.97-39.31,15.99-23.74-19.8-37.76-45.68-40.61-76.89-.79-8.64,1.45-16.26,10.85-19.43,9.27-3.12,17.44-.33,22.65,9.97,5.66,11.17,9.39,23.31,14.15,34.95,3.57,8.72,5.2,18.7,17.19,25.93-.58-8.92.68-16.35-1.79-22.21Zm124.56,22.57c-1.04,4.89-2.87,9.62-4.33,14.43-1.18.13-2.37.26-3.55.38-1.43-4.8-3.86-9.55-4.14-14.42-2.97-50.98-22.41-95.7-52.7-135.82-8.97-11.89-20.2-23.33-32.81-31-53.14-32.33-109.5-44.99-170.08-21.86-7.56,2.89-14.96,6.17-22.48,9.16-.74.29-1.8-.24-5.09-.77,2.8-4.97,4.51-9.67,7.59-13.2,12.85-14.72,30.65-18.73,48.87-20.95,28.46-3.46,56.33.16,83.69,8.34,4.33,1.3,8.76,2.28,13.19,3.22,1.13.24,2.43-.26,3.65-.41.37-1.02.74-2.04,1.12-3.06-5.52-2.84-10.82-6.23-16.58-8.44-33.26-12.81-67.33-15.72-102.34-8.36-4.77,1-10.14-.84-15.23-1.36,4.08-3.64,7.59-9.15,12.35-10.61,27.72-8.51,56.06-8.42,83.42.43,20.22,6.53,39.79,15.6,58.75,25.29,9.23,4.72,16.65,13.17,24.43,20.44,8.5,7.94,16.56,16.36,24.65,24.73,29.06,30.07,47.06,66.49,59.87,105.72,6.14,18.81,12.09,37.87,7.76,58.13Z"/><path class="cls-2" d="m236.22,349.25c-12.75-10.96-20.75-24.51-23.73-41.12-1.02-5.7-2.11-11.58-4.5-16.76-1.48-3.2-5.48-5.24-8.35-7.8-1.14,3.66-3.74,7.56-3.19,10.95,4.03,24.85,15.31,45.79,35.7,61.15,2.74,2.06,6.56,2.68,9.89,3.97.53-.79,1.05-1.58,1.58-2.38-2.45-2.69-4.66-5.66-7.4-8.01Z"/><path class="cls-1" d="m243.25,169.37c-28.29-7.82-57.6-14.07-86.79-15.99-35.47-2.33-67.84,9.66-93.48,35.75-7.89,8.03-13.86,17.37-10.95,30.4,6.9-4.47,12.94-9.53,18.1-15.36,16.32-18.45,36.51-29.86,60.68-34.13,25.11-4.44,49.79.51,74.49,3.99,29.11,4.1,54.42,16.82,73.24,38.94,38.37,45.08,56.72,98.28,53.31,157.23-1.29,22.22-9.38,43.8-21.8,60.58.89-3.23,1.28-6.39,1.03-9.46-1.62-20.03.78-31.6,2.12-40.41.14-.56.28-1.12.38-1.7,4.46-45.41-4.1-79.85-10.76-99.56-5.26-15.59-11.08-32.58-25.8-50.32-16.01-19.29-37.53-33.22-64.03-42.9-85.28-31.16-144.65,19.15-175.46,80.28-4.28,8.49-6.52,18.23-2.94,27.9,1.09.51,2.19,1.01,3.28,1.52,3.2-5.29,6.99-10.31,9.48-15.92,9.11-20.5,22.72-37.6,38.35-53.43,27.76-28.12,61.5-37.55,99.76-31.79,44.76,6.73,76.9,30.32,95.22,72.43,15.69,36.07,25.89,72.84,16.73,112.29-1.32,5.7-6.7,11.82-11.89,14.96-10.72,6.49-25.72,16.73-37.04,22.28-21,10.29-32.7,2.6-50.5-12.88-17.43-15.16-26.44-35.03-31.43-56.92-5.99-26.3-6.45-52.15,8.64-76.17,7.52-11.97,14.27-15.05,27.24-13.45,3.58.44,7.45-1.46,11.18-2.29-2.37-3.88-3.83-9.13-7.27-11.36-8.9-5.77-21.68-3.43-30.63,4.37-11.56,10.08-20.31,22.51-23.68,37.26-11.25,49.32-.29,93.32,35.3,129.87,14.42,14.82,28.72,26.2,48.77,19.76-5.1,2.18-5.69,4.52-7.28,5.82-8.01,6.55-9.22,7.6-13.1,10.19-2.18,1.46-4.37,3.64-11.65,5.1-7.34,1.47-10.7-4.26-16.01-8.73-10.03-11.4-25.51-29.74-30.15-44.14-6.85-21.27-13.64-42.62-18.98-64.31-5.71-23.23-7.45-46.9,1.57-69.94,13.86-35.4,49.26-51.37,83.27-26.48,20.95,15.34,36.25,35.06,43.16,60.67,5.77,21.39,8.87,42.78-.6,63.82-10.86,24.15-31.56,28.93-52,12.43-3.27-2.64-7.05-5.26-9.01-8.77-7.19-12.88-13.8-26.09-20.45-39.26-3-5.95-5.6-12.1-8.37-18.16-1.53.41-3.07.83-4.6,1.24.33,7.48.03,15.05,1.11,22.42,4.4,30.06,19.23,52.97,48.03,64.63,24.48,9.91,45.19.77,55.79-23.52,11.33-25.95,9.77-52.23,2.59-79.02-14.17-52.87-48.01-81.81-102.1-90.61-35.76-5.82-57.21,7.78-73.4,35.87-10.25,17.78-32.17,50.88-25.46,90.06,3.6,21.03,4.96,26.99,14.98,44.67,1.83,4.78,2.18,13.83,1.46,19.65-1.67,13.32-1.06,27.49-.81,30.31-.89-2.16-9.02-16.28-14.35-22.68-11.92-14.32-18.19-31.24-17.62-50.35.94-31.86,6.76-62.45,22.21-90.77,3.1-5.67,5.91-11.61,7.84-17.74.78-2.48-.31-7.27-2.14-8.37-1.87-1.12-6.82.02-8.43,1.89-5.24,6.08-10.61,12.45-14.08,19.61-13.52,27.86-23.1,56.73-25.22,88.18-1.98,29.4.72,57.62,12.08,84.81,3.98,9.52,9.37,18.01,20.71,21.8,2.03-17.27-15.28-29.2-9.14-46.64,6.83,6.66,13.49,13.49,17.19,21.66,4.62,10.21,7,21.47,9.99,32.38,2.8,10.23,10.45,20.92,19.37,28.02l-.14.34c4.85,3.72,12.01,8.93,21.11,14.56,14.98,9.26,24.27,12.65,36.39,16.01,16.78,4.66,29.88,3.17,34.21,4.37,1.83.5,2.67.34,4.37,0,.85-.17,1.28-.37,1.46-.73.43-.91-.97-2.4-1.46-2.91-4.13-4.39-10.92-5.82-10.92-5.82-6.61-1.4-12.48-5.25-18.92-7.28-19.67-6.19-29.51-9.28-34.21-11.65-6.72-3.38-15.65-9.43-24.4-21.11-.96-1.89-2-3.97-3.26-6.55,3.65,1.53,5.2.62,13.1,3.64,18.2,6.96,28.43,7.24,40.76,13.83.46.25.92.49,1.37.73,13.58,8.52,27.21,19.17,42.04,21.6,48.67,7.96,72.73,6.28,104.2-32.34,20.42-25.06,27.3-54.53,29.99-86.64,4.87-58.01-9.81-110.64-37.29-160.48-15.38-27.88-35.86-52.26-67.66-61.06Zm-148.5,154.81c-.67-5.56,1.37-11.53,2.64-17.21,5.42-24.31,14.13-47.17,29.77-66.99,9.71-12.31,27.08-20.43,37.25-16.94-.42.84-.67,1.82-1.28,2.43-1.59,1.62-3.15,3.37-5.05,4.55-23.71,14.72-35.99,37.67-44.85,62.87-2.43,6.93-3.96,14.45-4.21,21.76-.13,3.77,3.2,7.83,5.45,11.45,2.5,4.02,6.83,7.3,8.15,11.58,6.78,21.96,11.98,44.44,19.43,66.15l6.7,16.76c-11.65-8.73-18.92-19.65-18.92-19.65-6.7-12.8-12.83-19.1-21.84-37.12-3.14-6.27-12.38-32.32-13.26-39.63Zm84.57,143.6c-.61,2.06-2.77,3.23-4.82,2.63l-52.91-13.48c-7.9-2.04-13.5-9.07-13.71-17.23l-.69-26.04c-.03-.94.29-1.85.88-2.58,1.36-1.66,3.81-1.89,5.47-.53l64.47,53.09c1.24.98,1.75,2.62,1.3,4.13Zm43.61-4.13l64.47-53.09c.36-.3.77-.51,1.19-.66.09-.07.19-.14.28-.21-.01.04-.03.09-.04.13,1.43-.4,3.03.05,4.04,1.27.6.72.91,1.64.88,2.58l-.69,26.04c-.21,8.16-5.8,15.19-13.71,17.23l-25.61,6.52c-5.37,1.54-11.33,3.1-16.96,4.32l-10.34,2.63c-1.11.33-2.24.13-3.15-.43-.18.02-.37.03-.55.05-.05-.19-.1-.39-.14-.58-.45-.45-.8-1.01-.99-1.66-.45-1.51.07-3.15,1.3-4.13Zm102.93-22.01c-10.1,17.71-23.16,33.34-40.08,44.53-29.19,19.31-38.45,17.07-73.69,4.3-4.37-1.46-16.16-7.58-21.84-13.1,12.04,5.87,24.1,5.2,39.3,2.91,42.84-6.46,70.6-9.46,86.68-43.1,3.16-3.54,6.84-6.61,10.27-9.89,1.22.55,2.44,1.1,3.66,1.65-1.4,4.26-2.14,8.89-4.32,12.7Z"/><path class="cls-1" d="m302.62,177.39c-8.09-8.37-16.15-16.79-24.65-24.73-7.78-7.26-15.2-15.72-24.43-20.44-18.96-9.69-38.53-18.75-58.75-25.29-27.36-8.84-55.7-8.93-83.42-.43-4.75,1.46-8.26,6.97-12.35,10.61,5.09.52,10.46,2.36,15.23,1.36,35.02-7.36,69.08-4.45,102.34,8.36,5.76,2.22,11.06,5.6,16.58,8.44-.37,1.02-.74,2.04-1.12,3.06-1.22.16-2.51.65-3.65.41-4.43-.94-8.86-1.93-13.19-3.22-27.37-8.18-55.24-11.8-83.69-8.34-18.22,2.21-36.02,6.22-48.87,20.95-3.07,3.52-4.79,8.23-7.59,13.2,3.29.53,4.35,1.06,5.09.77,7.52-2.98,14.92-6.27,22.48-9.16,60.58-23.13,116.94-10.46,170.08,21.86,12.61,7.67,23.84,19.12,32.81,31,30.28,40.12,49.73,84.85,52.7,135.82.28,4.87,2.71,9.61,4.14,14.42,1.18-.13,2.37-.26,3.55-.38,1.46-4.81,3.28-9.53,4.33-14.43,4.32-20.26-1.62-39.32-7.76-58.13-12.81-39.23-30.81-75.65-59.87-105.72Z"/><path class="cls-1" d="m230.3,314.96c-4.76-11.64-8.49-23.78-14.15-34.95-5.21-10.29-13.38-13.09-22.65-9.97-9.4,3.16-11.64,10.79-10.85,19.43,2.85,31.21,16.87,57.09,40.61,76.89,16.76,13.98,36.22,5.71,39.31-15.99,4.33-30.4-6.24-56.75-24.76-80.21-3.44-4.36-8.21-11.78-14.91-6.96-7.44,5.35.27,10.81,2.76,15.79,6.64,13.26,14.3,26.06,20.04,39.69,2.47,5.86,1.21,13.3,1.79,22.21-11.98-7.23-13.62-17.2-17.19-25.93Zm11.73,44.68c-3.32-1.29-7.15-1.9-9.89-3.97-20.38-15.36-31.66-36.3-35.7-61.15-.55-3.39,2.05-7.28,3.19-10.95,2.87,2.56,6.87,4.6,8.35,7.8,2.39,5.18,3.48,11.06,4.5,16.76,2.98,16.61,10.99,30.16,23.73,41.12,2.74,2.35,4.94,5.33,7.4,8.01-.53.79-1.05,1.58-1.58,2.38Z"/><path class="cls-1" d="m148.56,91.56c82.09,4.21,145.44,40.24,188.62,110.71,3.72,6.08,7.72,12,11.9,17.77,1.51,2.08,3.93,3.49,7.78,6.79-.41-5.89.27-9.5-1-12.16-6.94-14.47-12.2-30.48-22.15-42.58-13.9-16.9-30.76-31.6-47.53-45.85-38.69-32.87-83.86-49.56-134.69-50.51-10.81-.2-21.31,1.13-29.11,9.74,0,1.35.02,2.7.03,4.05,8.72.7,17.42,1.62,26.15,2.06Z"/><path class="cls-1" d="m301.09,126.56c3.11,2.65,7.41,3.91,11.16,5.81l2.62-2.28c-1.37-3.98-1.86-8.64-4.3-11.79-4.3-5.57-9.28-10.9-14.87-15.16-31.01-23.64-66.11-37.93-104.58-43.67-10.57-1.58-21.65-2.48-32.99,5.54,5.08,1.69,8.53,3.3,12.15,3.97,48.12,8.94,92.89,25.35,130.79,57.57Z"/><path class="cls-1" d="m228.48,59.48c18.93,8.36,37.9,16.63,56.99,24.63,1.56.66,4.03-.83,6.07-1.33-.77-2.2-.88-5.45-2.42-6.43-12.8-8.11-25.33-17.01-39.07-23.1-6.72-2.98-15.85-.52-23.89-.52-.19,1.08-.39,2.15-.58,3.23.96,1.2,1.66,2.97,2.9,3.52Z"/></svg>