<?xml version="1.0" encoding="UTF-8"?>
<svg id="Lag_1" data-name="Lag 1" xmlns="http://www.w3.org/2000/svg" viewBox="0 0 1920 1080">
  <defs>
    <style>
      .cls-1 {
        fill: #f9f9f9;
      }

      .cls-2 {
        fill: #e3117e;
      }
    </style>
  </defs>
  <g>
    <path class="cls-1" d="M773.66,523.21c-29.06,0-54.52-3.52-76.39-10.56-21.87-7.04-41.49-15.65-58.87-25.84,0,0,0,0,0,0l20.22-66.95s0,0,0,0c17.97,10.49,36.02,19.1,54.14,25.84,18.12,6.74,38.87,10.11,62.24,10.11,17.67,0,30.4-3.29,38.19-9.89,7.79-6.59,11.68-15.42,11.68-26.51,0-13.77-4.94-23.21-14.83-28.31-9.89-5.09-26.96-10.33-51.22-15.73-41.04-9.28-69.87-22.02-86.5-38.19-16.62-16.18-24.94-39.54-24.94-70.1s10.78-58.04,32.35-79.76c21.57-21.72,54.67-32.58,99.31-32.58,21.57,0,43.36,3.82,65.38,11.46,22.01,7.64,39.46,15.21,52.35,22.69l-15.73,63.81s0,0,0,0c-17.97-8.99-34.98-16.18-51-21.57-16.03-5.39-32.88-8.09-50.55-8.09-14.68,0-25.47,2.85-32.35,8.54-6.9,5.69-10.33,14.08-10.33,25.16s4.19,19.92,12.58,26.51c8.38,6.59,26.35,12.74,53.92,18.42,41.04,8.69,69.87,21.42,86.5,38.19,16.63,16.78,24.94,41.49,24.94,74.14,0,34.75-12.43,61.64-37.29,80.66-24.87,19.03-59.47,28.53-103.8,28.53Z"/>
    <path class="cls-1" d="M1160.99,518.72l-18.43-80.88s0,0,0,0h-102s0,0,0,0l-20.22,80.88s0,0,0,0h-80.88s0,0,0,0l97.96-359.47s0,0,0,0h110.09s0,0,0,0l97.96,359.47s0,0,0,0h-84.47s0,0,0,0ZM1127.29,370.44l-32.8-146.49s0,0,0,0l-36.85,146.49s0,0,0,0h69.65s0,0,0,0Z"/>
    <path class="cls-1" d="M1407.67,523.21c-43.74,0-77.29-10.71-100.65-32.13-23.37-21.41-35.05-52.19-35.05-92.34v-117.73c0-40.74,11.6-71.97,34.82-93.69,23.21-21.72,56.69-32.58,100.43-32.58s76.54,9.74,98.41,29.21c21.86,19.48,33.85,47.34,35.95,83.58,0,0,0,0,0,0l-89.87,4.49s0,0,0,0c-1.5-18.87-5.47-31.9-11.91-39.09-6.45-7.19-17-10.78-31.68-10.78-17.38,0-29.43,4.87-36.17,14.6-6.74,9.74-10.11,27.49-10.11,53.25v99.75c0,25.16,3.22,42.46,9.66,51.9,6.44,9.44,18.2,14.16,35.27,14.16s28.91-4.56,35.5-13.71c6.59-9.13,9.73-25.54,9.44-49.2,0,0,0,0,0,0h-44.93s0,0,0,0v-67.4s0,0,0,0h134.8s0,0,0,0v73.24c0,40.15-11.53,70.93-34.6,92.34-23.07,21.42-56.17,32.13-99.31,32.13Z"/>
    <path class="cls-1" d="M1790.05,518.72l-18.43-80.88s0,0,0,0h-102s0,0,0,0l-20.22,80.88s0,0,0,0h-80.88s0,0,0,0l97.96-359.47s0,0,0,0h110.09s0,0,0,0l97.96,359.47s0,0,0,0h-84.47s0,0,0,0ZM1756.35,370.44l-32.8-146.49s0,0,0,0l-36.85,146.49s0,0,0,0h69.65s0,0,0,0Z"/>
    <path class="cls-1" d="M665.37,920.75v-359.47s0,0,0,0h89.87s0,0,0,0v292.07s0,0,0,0h157.27s0,0,0,0v67.4s0,0,0,0h-247.14s0,0,0,0Z"/>
    <path class="cls-1" d="M1160.99,920.75l-18.43-80.88s0,0,0,0h-102s0,0,0,0l-20.22,80.88s0,0,0,0h-80.88s0,0,0,0l97.96-359.47s0,0,0,0h110.09s0,0,0,0l97.96,359.47s0,0,0,0h-84.47s0,0,0,0ZM1127.29,772.47l-32.8-146.49s0,0,0,0l-36.85,146.49s0,0,0,0h69.65s0,0,0,0Z"/>
    <path class="cls-1" d="M1271.97,920.75v-359.47s0,0,0,0h141.09c40.44,0,70.32,6.89,89.64,20.67,19.32,13.78,28.98,35.05,28.98,63.81v15.28c0,19.77-4.2,34.37-12.58,43.81-8.39,9.44-22.01,15.8-40.89,19.1,0,0,0,0,0,0v13.03s0,0,0,0c20.37,2.1,36.02,9.06,46.96,20.89,10.93,11.84,16.4,26.73,16.4,44.71v23.37c0,32.06-10.56,55.87-31.68,71.44-21.12,15.58-53.85,23.37-98.18,23.37h-139.74s0,0,0,0ZM1361.84,705.07s0,0,0,0h42.24c14.07,0,24.04-2.25,29.88-6.74,5.84-4.49,8.76-12.28,8.76-23.37v-21.57c0-10.78-2.92-18.35-8.76-22.69-5.84-4.34-15.8-6.51-29.88-6.51h-42.24s0,0,0,0v80.88ZM1361.84,857.85s0,0,0,0h40.44c17.98,0,30.7-2.7,38.2-8.09,7.48-5.39,11.23-14.83,11.23-28.31v-23.37c0-12.88-3.75-22.02-11.23-27.41-7.49-5.39-20.22-8.09-38.2-8.09h-40.44s0,0,0,0v95.26Z"/>
    <path class="cls-1" d="M1717.26,925.25c-29.06,0-54.52-3.52-76.39-10.56-21.87-7.04-41.49-15.65-58.87-25.84,0,0,0,0,0,0l20.22-66.95s0,0,0,0c17.97,10.49,36.02,19.1,54.14,25.84,18.12,6.74,38.87,10.11,62.24,10.11,17.67,0,30.4-3.29,38.19-9.89,7.79-6.59,11.68-15.42,11.68-26.51,0-13.77-4.94-23.21-14.83-28.31-9.89-5.09-26.96-10.33-51.22-15.73-41.04-9.28-69.87-22.02-86.5-38.19-16.62-16.18-24.94-39.54-24.94-70.1s10.78-58.04,32.35-79.76c21.57-21.72,54.67-32.58,99.31-32.58,21.57,0,43.36,3.82,65.38,11.46,22.01,7.64,39.46,15.21,52.35,22.69l-15.73,63.81s0,0,0,0c-17.97-8.99-34.98-16.18-51-21.57-16.03-5.39-32.88-8.09-50.55-8.09-14.68,0-25.47,2.85-32.35,8.54-6.9,5.69-10.33,14.08-10.33,25.16s4.19,19.92,12.58,26.51c8.38,6.59,26.35,12.74,53.92,18.42,41.04,8.69,69.87,21.42,86.5,38.19,16.63,16.78,24.94,41.49,24.94,74.14,0,34.75-12.43,61.64-37.29,80.66-24.87,19.03-59.47,28.53-103.8,28.53Z"/>
  </g>
  <rect class="cls-2" x="46.1" y="154.76" width="530.03" height="766" rx="35.78" ry="35.78"/>
  <g>
    <path class="cls-1" d="M456.03,458.87c-15.62-28.92-32.16-50.23-57.71-66.34-74.24-36.75-201.24-62.87-269.65,5.68-9.56,9.15-19.19,19.47-20.7,33.23-.97,7.39,1.42,12.64,9.34,6.75,5.63-4.03,10.16-8.91,14.65-13.7,56.69-66.34,151.08-53.77,225.66-29.3,18.8,8.04,36.1,19.75,49.98,34.83,65.86,72.07,107.38,200,53.01,287.77-10.01,2.91-2.7-48.59-2.16-52.46,9.14-74.15-5.1-155.89-51.74-212.28-67.64-70.9-179.13-92.07-256.98-24.52-26.71,21.88-63.82,67.82-66.87,102.96-.12,6.94,2.64,19.84,9.23,11.39,8.97-12.2,13.95-26.92,22.1-39.62,11.87-19.4,26.8-36.62,43.1-52.63,56.91-57.04,151.79-51.49,211.47-5.56,46.75,39.81,69.11,107.82,74.23,168.64.59,18.65-1.94,37.09-9.54,54.34-3.42,5.91-9.34,10.07-14.99,13.59-30.44,17.75-65.47,51.23-99.76,21.98-55.19-38.76-78.53-123.27-48.39-183.85,6.01-11.21,14.17-22.72,27.15-24.42,6.7-1.46,25.5,3.19,25.23-7.21-3.09-12.3-16.86-17.18-28.77-14.53-14.7,2.76-25.49,14.11-34.39,25.28-49.49,73.87-14.87,187.09,60.91,232.37,7.18,4.04,15.69,4.3,23.76,5.61,6.84,3.48-7.85,11.94-10.38,14.46-17.02,13.54-29.85,15.22-44.14-2.89-13.74-15.56-30.18-34.7-38.17-55.41-20.33-66.99-59.44-153.28-4.09-213.46,19.11-21.12,50.58-25.2,75.82-13.49,64.13,28,113.07,143.44,56.99,197.66-19.16,17.29-46.32,4.82-61.66-11.63-9.67-11.56-15.05-26.01-22.43-39.07-6.23-12.12-12.25-24.41-17.81-36.79-1.09-2.48-3.93-6.48-6.84-4.09-5.03,6.62.96,45.55,4.53,54.2,17.56,53.56,98.23,101.42,132.04,35.52,21.98-43.46,13.83-95.89-3.94-139.44-24.83-60.06-89.14-97.37-157.82-94.21-27.63,3.25-49.35,18.66-64.34,43.29-20.07,32.05-48.85,81.07-36.65,135.1,3.18,17.24,7,31.47,16.43,47.48,7.03,12.9,4.4,28.03,3.37,41.95-.61,9.32-.63,20.63-.09,29.55-.28.3-.78-1.46-1.12-1.89-5.13-10.14-11.9-20.31-18.86-29.44-47.53-57.2-12.31-151.28,16.5-210.49,2.51-6.43-1.23-14.85-8.36-12.63-3.11.84-5.74,3.37-7.9,5.7-51.3,69.8-64.96,169.86-35.14,250.94,4.13,10.63,14.11,31.33,27.45,30.09,7.8-5.02-14.56-39.96-11.85-49.68.28-4.19,2.17-7.18,5.9-4.75,39.84,34.21,15.08,78.63,68.22,112.86,20.27,15.25,46.94,29.32,68.11,34.01,16.43,4.68,30.99,4.01,44.07,5.4,15.81,2.58,4.93-7.94-2.34-10.59-2.65-1.23-4.9-1.71-7.56-2.39-10.8-3.28-21.31-9.4-32.32-12.07-29.79-10.59-46.14-10.28-68.33-38.44-1.59-2.21-2.31-3.87-2.31-6.3.92-7.94,16.9,1.72,21.56,2.38,17.83,6.13,32.02,8.04,45.86,15.37,16.72,9.27,32.81,22.65,50.4,28.13,43.55,10.58,80.93,11.09,110.26-5.87,116.13-77.09,89.42-262.19,28.87-366.88l-.1-.18ZM165.7,588.74c-.58-2.49-.99-5.33-.75-8.11,7.03-45.68,32.23-126.26,85.98-132.72,4.26-.33,9.16,1.4,5,6.27-2.05,2.22-4.58,3.92-7.08,5.62-31.11,20.07-48,51.62-59.45,85.37-2.77,8.63-4.86,17.88-4.73,26.96.21,3.27,1.63,6.48,3.47,9.42,2.73,4.52,5.76,8.69,9.16,12.64,2.05,2.5,4.14,5.09,5.18,8.19,10.05,28.99,16.35,59.36,26.59,88.25,2.31,6.19,8.17,20.37,9.29,23.36.1.27-.25.01-.95-.53-4.94-3.82-10.59-9.08-14.89-13.63-4.94-5.28-9.23-10.51-12.57-16.87-7.8-13.39-19.03-28.46-27.32-45.72-5.51-12.09-13.02-33.08-16.9-48.36l-.04-.16ZM279.16,777.65c-.56,2.1-2.89,3.63-5.09,3.69-1.97.04-3.97-.78-5.94-1.2-19.22-4.93-55.62-14.19-65.57-16.79-6.41-1.63-12.37-5.96-15.77-11.7-3.36-5.4-3.71-12.07-3.73-18.27-.11-4.29-.27-10.17-.41-15.53-.09-3.29-.14-5.83-.24-8.7-.3-3.93.08-8.35,4.3-9.3,1.86-.56,3.87-.01,5.13,1.07,6.85,5.66,52.19,43.15,74.94,61.98,5,4.13,8.66,7.16,10.3,8.52,1.75,1.36,2.69,3.78,2.13,6.06l-.05.18ZM337.01,773.26c11.03-10.59,32.4-26.91,46.86-39.32,18.49-15.29,35.49-29.39,40.11-33.18,1.84-1.57,4.83-1.63,6.87-.1,2.5,1.75,2.53,4.66,2.38,7.57-.07,3.04-.15,5.64-.24,9.26-.15,6.48-.39,12.68-.44,18.45.26,12.47-6.06,23.29-18.29,27.07-19.02,4.92-43.01,11.3-62.97,16.21-3.85.72-7.83,2.71-11.77,1.75-3.05-.91-4.11-4.64-2.6-7.54l.09-.17ZM480.38,733.38c-14.04,36.6-56.23,76.44-94.04,86.93-20.62,4.45-43.02-4.42-63.38-11.87-3.88-1.66-16.85-6.08-16.93-10.73.55-2.02,3.84-1.87,5.63-1.67,5.22.59,10.57.72,16.21.38,56.46-6.48,114.63-11.62,136.66-60.64,2.86-3.87,6.46-7.17,10.21-10.19.73-.56,1.53-1.07,2.41-1.33,5.61-1.38,4.61,5.42,3.28,8.92l-.06.18Z"/>
    <path class="cls-1" d="M345.53,330.94c.32-3.71-7.02-7.5-10.69-9.29-41.22-18.44-86.64-23.15-131.09-16.64-6.9.8-15.57,2.94-22,.71-6.14-2.26-3.32-8.44,1.3-11.36,5.22-3.67,11.51-5.45,17.86-6.96,26.56-6.07,53.71-6.32,80.13-.5,33.32,7.59,64.76,22.3,95.15,37.89,3.47,1.9,6.85,3.93,10.09,6.18,14.45,10.4,26.77,23.92,39.63,36.28,56.68,52.75,93.34,122.97,110.36,198.21,3.14,13.78,4.19,28.09,1.79,42.09-.85,5.41-2.7,13.41-5.77,16.64-4.62,4.55-7.9-1.73-9.34-7.34-.75-2.93-1.19-5.94-1.59-8.94-5.88-69.86-33.43-134.32-77.35-188.36-7.11-8.74-14.95-16.94-23.62-24.09-77.59-58.23-173.63-74.64-263.51-34.2-4.65,1.83-9.16,2.87-11.63,1.84-4.76-1.9-1.33-9.11,1.27-12.72,9.82-13.57,25.53-21.69,41.41-26.07,47.46-12.34,97.01-6.1,143.5,7.34,3.96.78,12.3,2.93,14.08-.62l.02-.07Z"/>
    <path class="cls-1" d="M366.92,602.88c3.56.24,3.78-4.85,3.8-7.53.04-6.64-.26-12.63-2.65-18.68-6.76-16.75-16.11-32.44-24.28-48.56-2.11-4.3-4.93-8.27-7.3-12.39-.91-1.66-1.71-3.54-1.82-5.38-.51-5.01,5.26-9.67,10.08-9.03,7.36,1.11,11.37,8.6,15.74,13.86,21.28,27.63,34.83,62.14,31.63,97.36-.84,33.22-28.77,50.9-54.97,28.41-3.81-3.25-7.47-6.75-10.84-10.15-23.06-23.52-37.66-52.95-41.88-87.01-2.84-17.44,2.25-31.85,21.98-33.38,12.77-.76,20.56,9.94,25.04,20.33,6.26,13.82,11.05,28.35,16.65,42.4,3.83,9.2,8.22,26.01,18.67,29.72l.15.02ZM364.2,630.95c1.33-2.6-2.67-6.56-4.72-8.55-16.49-15.19-29.62-32.15-34.52-54.37-3-10.97-3.41-29.37-14.58-35.31-4.49-2.16-7.59,2.11-8.28,6.58-.79,3.95-.15,7.86.65,11.74,6.62,31.14,22.79,59.35,49.39,77.69,2.94,1.74,9.33,5.18,12,2.33l.07-.11Z"/>
    <path class="cls-1" d="M204.71,262.38c7.93-9.2,20.89-11.01,32.4-11.35,75.6-.5,144.47,28.54,199.39,79.67,20.24,17.92,40.61,36.01,56.21,57.97,9,13.56,15.04,29.58,21.96,44.73,1.99,4.37,5.26,11.28.68,14.78-5.28,2.33-8.9-4.78-11.63-8.29-60.62-102.63-139.69-158.94-260.04-167.12-10.65-.62-21.17-1.34-31.75-2.35-4.55-.14-10.59-2.59-7.33-7.89l.1-.15Z"/>
    <path class="cls-1" d="M459.47,326.31c-4.52,1.86-14.86-5.31-18.51-8.43-50.21-41.7-109.38-63.38-172.57-75.37-3.89-.99-13.03-2.38-14.14-6.1-.27-4.83,13.01-7.41,16.5-7.98,4.68-.68,9.31-.68,13.88-.34,58.04,6.53,113.69,28.5,158.63,66.2,6.55,6.58,13.95,13.23,16.69,22.35.94,3.41,2.62,7.49-.35,9.59l-.13.07Z"/>
    <path class="cls-1" d="M342.04,222.37c2.26-3.12,7.47-2.33,11.07-2.89,8.9-.86,16.92-.87,24.66,3.18,16.11,7.59,31.19,17.84,46.28,27.52,3.09,1.93,6.49,5.59,5.27,9.3-1.9,4.95-8.53,2.98-12.27,1.23-23.19-9.77-46.34-19.68-69.33-29.91-3.06-1.33-7.34-4.86-5.75-8.31l.07-.13Z"/>
  </g>
</svg>